<svg xmlns="http://www.w3.org/2000/svg" viewBox="0 0 128 128" width="128" height="128" role="img" aria-label="Triangular / varying distributed load"><title>Triangular / varying distributed load</title><defs><linearGradient id="fb3" x1="0" y1="0" x2="0" y2="1"><stop offset="0" stop-color="#e8edf2"/><stop offset="1" stop-color="#9aa7b4"/></linearGradient><linearGradient id="fb3b" x1="0" y1="0" x2="0" y2="1"><stop offset="0" stop-color="#9aa7b4"/><stop offset="1" stop-color="#5b6675"/></linearGradient><linearGradient id="ar3" x1="0" y1="0" x2="0" y2="1"><stop offset="0" stop-color="#e74c3c"/><stop offset="1" stop-color="#a02b1d"/></linearGradient><linearGradient id="at3" x1="0" y1="0" x2="0" y2="1"><stop offset="0" stop-color="#3b82f6"/><stop offset="1" stop-color="#1d4ed8"/></linearGradient><linearGradient id="am" x1="0" y1="0" x2="0" y2="1"><stop offset="0" stop-color="#a78bfa"/><stop offset="1" stop-color="#6d28d9"/></linearGradient></defs><ellipse cx="64" cy="104" rx="44" ry="8" fill="#00000020"/><polygon points="25.0,78.5 83.9,44.5 93.4,50.0 34.6,84.0" fill="url(#fb3)" stroke="#3d4654" stroke-width="2" stroke-linejoin="round"/><polygon points="93.4,50.0 83.9,44.5 83.9,53.5 93.4,59.0" fill="#5b6675" stroke="#3d4654" stroke-width="2" stroke-linejoin="round"/><polygon points="34.6,84.0 93.4,50.0 93.4,59.0 34.6,93.0" fill="#9aa7b4" stroke="#3d4654" stroke-width="2" stroke-linejoin="round"/><line x1="43.2" y1="66.0" x2="43.2" y2="76.0" stroke="url(#ar3)" stroke-width="6" stroke-linecap="round"/><polygon points="43.2,76.0 38.4,66.1 48.0,66.1" fill="url(#ar3)" stroke="none" stroke-width="2" stroke-linejoin="round"/><line x1="53.6" y1="54.0" x2="53.6" y2="70.0" stroke="url(#ar3)" stroke-width="6" stroke-linecap="round"/><polygon points="53.6,70.0 48.8,60.1 58.4,60.1" fill="url(#ar3)" stroke="none" stroke-width="2" stroke-linejoin="round"/><line x1="64.0" y1="42.0" x2="64.0" y2="64.0" stroke="url(#ar3)" stroke-width="6" stroke-linecap="round"/><polygon points="64.0,64.0 59.2,54.1 68.8,54.1" fill="url(#ar3)" stroke="none" stroke-width="2" stroke-linejoin="round"/><line x1="74.4" y1="30.0" x2="74.4" y2="58.0" stroke="url(#ar3)" stroke-width="6" stroke-linecap="round"/><polygon points="74.4,58.0 69.6,48.1 79.2,48.1" fill="url(#ar3)" stroke="none" stroke-width="2" stroke-linejoin="round"/><line x1="84.8" y1="18.0" x2="84.8" y2="52.0" stroke="url(#ar3)" stroke-width="6" stroke-linecap="round"/><polygon points="84.8,52.0 80.0,42.1 89.6,42.1" fill="url(#ar3)" stroke="none" stroke-width="2" stroke-linejoin="round"/></svg>