<svg xmlns="http://www.w3.org/2000/svg" viewBox="0 0 128 128" width="128" height="128" role="img" aria-label="Self-weight / gravity load"><title>Self-weight / gravity load</title><defs><linearGradient id="fb" x1="0" y1="0" x2="0" y2="1"><stop offset="0" stop-color="#e8edf2"/><stop offset="1" stop-color="#5b6675"/></linearGradient><linearGradient id="ar" x1="0" y1="0" x2="0" y2="1"><stop offset="0" stop-color="#e74c3c"/><stop offset="1" stop-color="#a02b1d"/></linearGradient><linearGradient id="at" x1="0" y1="0" x2="0" y2="1"><stop offset="0" stop-color="#3b82f6"/><stop offset="1" stop-color="#1d4ed8"/></linearGradient><linearGradient id="am" x1="0" y1="0" x2="0" y2="1"><stop offset="0" stop-color="#a78bfa"/><stop offset="1" stop-color="#6d28d9"/></linearGradient></defs><rect x="20.0" y="72.0" width="88.0" height="12.0" rx="3" fill="url(#fb)" stroke="#3d4654" stroke-width="2"/><line x1="30.0" y1="30.0" x2="30.0" y2="68.0" stroke="url(#ar)" stroke-width="6" stroke-linecap="round"/><polygon points="30.0,68.0 25.2,58.1 34.8,58.1" fill="url(#ar)" stroke="none" stroke-width="2" stroke-linejoin="round"/><line x1="46.0" y1="30.0" x2="46.0" y2="68.0" stroke="url(#ar)" stroke-width="6" stroke-linecap="round"/><polygon points="46.0,68.0 41.2,58.1 50.8,58.1" fill="url(#ar)" stroke="none" stroke-width="2" stroke-linejoin="round"/><line x1="62.0" y1="30.0" x2="62.0" y2="68.0" stroke="url(#ar)" stroke-width="6" stroke-linecap="round"/><polygon points="62.0,68.0 57.2,58.1 66.8,58.1" fill="url(#ar)" stroke="none" stroke-width="2" stroke-linejoin="round"/><line x1="78.0" y1="30.0" x2="78.0" y2="68.0" stroke="url(#ar)" stroke-width="6" stroke-linecap="round"/><polygon points="78.0,68.0 73.2,58.1 82.8,58.1" fill="url(#ar)" stroke="none" stroke-width="2" stroke-linejoin="round"/><line x1="94.0" y1="30.0" x2="94.0" y2="68.0" stroke="url(#ar)" stroke-width="6" stroke-linecap="round"/><polygon points="94.0,68.0 89.2,58.1 98.8,58.1" fill="url(#ar)" stroke="none" stroke-width="2" stroke-linejoin="round"/></svg>