<svg xmlns="http://www.w3.org/2000/svg" viewBox="0 0 128 128" width="128" height="128" role="img" aria-label="Triangular / varying distributed load"><title>Triangular / varying distributed load</title><defs><linearGradient id="fb" x1="0" y1="0" x2="0" y2="1"><stop offset="0" stop-color="#e8edf2"/><stop offset="1" stop-color="#5b6675"/></linearGradient><linearGradient id="ar" x1="0" y1="0" x2="0" y2="1"><stop offset="0" stop-color="#e74c3c"/><stop offset="1" stop-color="#a02b1d"/></linearGradient><linearGradient id="at" x1="0" y1="0" x2="0" y2="1"><stop offset="0" stop-color="#3b82f6"/><stop offset="1" stop-color="#1d4ed8"/></linearGradient><linearGradient id="am" x1="0" y1="0" x2="0" y2="1"><stop offset="0" stop-color="#a78bfa"/><stop offset="1" stop-color="#6d28d9"/></linearGradient></defs><rect x="20.0" y="72.0" width="88.0" height="12.0" rx="3" fill="url(#fb)" stroke="#3d4654" stroke-width="2"/><polygon points="24.0,68.0 104.0,26.0 104.0,68.0" fill="#e74c3c44" stroke="#a02b1d" stroke-width="1.5" stroke-linejoin="round"/><line x1="32.0" y1="63.8" x2="32.0" y2="68.0" stroke="url(#ar)" stroke-width="6" stroke-linecap="round"/><polygon points="32.0,68.0 27.2,58.1 36.8,58.1" fill="url(#ar)" stroke="none" stroke-width="2" stroke-linejoin="round"/><line x1="46.0" y1="56.5" x2="46.0" y2="68.0" stroke="url(#ar)" stroke-width="6" stroke-linecap="round"/><polygon points="46.0,68.0 41.2,58.1 50.8,58.1" fill="url(#ar)" stroke="none" stroke-width="2" stroke-linejoin="round"/><line x1="60.0" y1="49.1" x2="60.0" y2="68.0" stroke="url(#ar)" stroke-width="6" stroke-linecap="round"/><polygon points="60.0,68.0 55.2,58.1 64.8,58.1" fill="url(#ar)" stroke="none" stroke-width="2" stroke-linejoin="round"/><line x1="74.0" y1="41.8" x2="74.0" y2="68.0" stroke="url(#ar)" stroke-width="6" stroke-linecap="round"/><polygon points="74.0,68.0 69.2,58.1 78.8,58.1" fill="url(#ar)" stroke="none" stroke-width="2" stroke-linejoin="round"/><line x1="88.0" y1="34.4" x2="88.0" y2="68.0" stroke="url(#ar)" stroke-width="6" stroke-linecap="round"/><polygon points="88.0,68.0 83.2,58.1 92.8,58.1" fill="url(#ar)" stroke="none" stroke-width="2" stroke-linejoin="round"/></svg>