<svg xmlns="http://www.w3.org/2000/svg" viewBox="0 0 128 128" width="128" height="128" role="img" aria-label="Uniformly distributed load (UDL)"><title>Uniformly distributed load (UDL)</title><defs><linearGradient id="fb" x1="0" y1="0" x2="0" y2="1"><stop offset="0" stop-color="#e8edf2"/><stop offset="1" stop-color="#5b6675"/></linearGradient><linearGradient id="ar" x1="0" y1="0" x2="0" y2="1"><stop offset="0" stop-color="#e74c3c"/><stop offset="1" stop-color="#a02b1d"/></linearGradient><linearGradient id="at" x1="0" y1="0" x2="0" y2="1"><stop offset="0" stop-color="#3b82f6"/><stop offset="1" stop-color="#1d4ed8"/></linearGradient><linearGradient id="am" x1="0" y1="0" x2="0" y2="1"><stop offset="0" stop-color="#a78bfa"/><stop offset="1" stop-color="#6d28d9"/></linearGradient></defs><rect x="20.0" y="72.0" width="88.0" height="12.0" rx="3" fill="url(#fb)" stroke="#3d4654" stroke-width="2"/><rect x="24.0" y="24.0" width="80.0" height="8.0" rx="2" fill="#e74c3c" stroke="none" stroke-width="2"/><line x1="30.0" y1="32.0" x2="30.0" y2="68.0" stroke="url(#ar)" stroke-width="6" stroke-linecap="round"/><polygon points="30.0,68.0 25.2,58.1 34.8,58.1" fill="url(#ar)" stroke="none" stroke-width="2" stroke-linejoin="round"/><line x1="44.0" y1="32.0" x2="44.0" y2="68.0" stroke="url(#ar)" stroke-width="6" stroke-linecap="round"/><polygon points="44.0,68.0 39.2,58.1 48.8,58.1" fill="url(#ar)" stroke="none" stroke-width="2" stroke-linejoin="round"/><line x1="58.0" y1="32.0" x2="58.0" y2="68.0" stroke="url(#ar)" stroke-width="6" stroke-linecap="round"/><polygon points="58.0,68.0 53.2,58.1 62.8,58.1" fill="url(#ar)" stroke="none" stroke-width="2" stroke-linejoin="round"/><line x1="72.0" y1="32.0" x2="72.0" y2="68.0" stroke="url(#ar)" stroke-width="6" stroke-linecap="round"/><polygon points="72.0,68.0 67.2,58.1 76.8,58.1" fill="url(#ar)" stroke="none" stroke-width="2" stroke-linejoin="round"/><line x1="86.0" y1="32.0" x2="86.0" y2="68.0" stroke="url(#ar)" stroke-width="6" stroke-linecap="round"/><polygon points="86.0,68.0 81.2,58.1 90.8,58.1" fill="url(#ar)" stroke="none" stroke-width="2" stroke-linejoin="round"/><line x1="100.0" y1="32.0" x2="100.0" y2="68.0" stroke="url(#ar)" stroke-width="6" stroke-linecap="round"/><polygon points="100.0,68.0 95.2,58.1 104.8,58.1" fill="url(#ar)" stroke="none" stroke-width="2" stroke-linejoin="round"/></svg>