<svg xmlns="http://www.w3.org/2000/svg" viewBox="0 0 128 128" width="128" height="128" role="img" aria-label="Box / RHS (hollow rect)"><title>Box / RHS (hollow rect)</title><defs><linearGradient id="eg" x1="0" y1="0" x2="0" y2="1"><stop offset="0" stop-color="#e8edf2"/><stop offset="1" stop-color="#9aa7b4"/></linearGradient><linearGradient id="eg2" x1="0" y1="0" x2="0" y2="1"><stop offset="0" stop-color="#9aa7b4"/><stop offset="1" stop-color="#5b6675"/></linearGradient><linearGradient id="eg3" x1="0" y1="0" x2="0" y2="1"><stop offset="0" stop-color="#5b6675"/><stop offset="1" stop-color="#3d4654"/></linearGradient></defs><ellipse cx="74" cy="104" rx="40" ry="9" fill="#00000020"/><polygon points="84.3,66.3 43.7,42.9 83.6,19.9 124.1,43.3" fill="url(#eg2)" stroke="#3d4654" stroke-width="1.2" stroke-linejoin="round"/><polygon points="43.7,42.9 43.7,89.7 83.6,66.7 83.6,19.9" fill="url(#eg2)" stroke="#3d4654" stroke-width="1.2" stroke-linejoin="round"/><polygon points="43.7,89.7 84.3,113.1 124.1,90.1 83.6,66.7" fill="url(#eg2)" stroke="#3d4654" stroke-width="1.2" stroke-linejoin="round"/><polygon points="84.3,113.1 84.3,66.3 124.1,43.3 124.1,90.1" fill="url(#eg2)" stroke="#3d4654" stroke-width="1.2" stroke-linejoin="round"/><polygon points="84.3,66.3 43.7,42.9 43.7,89.7 84.3,113.1" fill="url(#eg)" stroke="#3d4654" stroke-width="1.5" stroke-linejoin="round"/><polygon points="77.3,70.3 50.7,55.0 50.7,85.7 77.3,101.0" fill="#2f3742" stroke="#3d4654" stroke-width="1" stroke-linejoin="round"/></svg>