<svg xmlns="http://www.w3.org/2000/svg" viewBox="0 0 128 128" width="128" height="128" role="img" aria-label="Channel (C / PFC)"><title>Channel (C / PFC)</title><defs><linearGradient id="eg" x1="0" y1="0" x2="0" y2="1"><stop offset="0" stop-color="#e8edf2"/><stop offset="1" stop-color="#9aa7b4"/></linearGradient><linearGradient id="eg2" x1="0" y1="0" x2="0" y2="1"><stop offset="0" stop-color="#9aa7b4"/><stop offset="1" stop-color="#5b6675"/></linearGradient><linearGradient id="eg3" x1="0" y1="0" x2="0" y2="1"><stop offset="0" stop-color="#5b6675"/><stop offset="1" stop-color="#3d4654"/></linearGradient></defs><ellipse cx="74" cy="104" rx="40" ry="9" fill="#00000020"/><polygon points="78.8,61.4 49.2,44.2 89.0,21.2 118.6,38.4" fill="url(#eg2)" stroke="#3d4654" stroke-width="1.2" stroke-linejoin="round"/><polygon points="49.2,44.2 49.2,53.2 89.0,30.2 89.0,21.2" fill="url(#eg2)" stroke="#3d4654" stroke-width="1.2" stroke-linejoin="round"/><polygon points="49.2,53.2 71.0,65.8 110.9,42.9 89.0,30.2" fill="url(#eg2)" stroke="#3d4654" stroke-width="1.2" stroke-linejoin="round"/><polygon points="71.0,65.8 71.0,98.2 110.9,75.2 110.9,42.9" fill="url(#eg2)" stroke="#3d4654" stroke-width="1.2" stroke-linejoin="round"/><polygon points="71.0,98.2 49.2,85.7 89.0,62.7 110.9,75.2" fill="url(#eg2)" stroke="#3d4654" stroke-width="1.2" stroke-linejoin="round"/><polygon points="49.2,85.7 49.2,94.7 89.0,71.7 89.0,62.7" fill="url(#eg2)" stroke="#3d4654" stroke-width="1.2" stroke-linejoin="round"/><polygon points="49.2,94.7 78.8,111.8 118.6,88.8 89.0,71.7" fill="url(#eg2)" stroke="#3d4654" stroke-width="1.2" stroke-linejoin="round"/><polygon points="78.8,111.8 78.8,61.4 118.6,38.4 118.6,88.8" fill="url(#eg2)" stroke="#3d4654" stroke-width="1.2" stroke-linejoin="round"/><polygon points="118.6,38.4 89.0,21.2 89.0,30.2 110.9,42.9 110.9,75.2 89.0,62.7 89.0,71.7 118.6,88.8" fill="url(#eg3)" stroke="#3d4654" stroke-width="1.2" stroke-linejoin="round"/><polygon points="78.8,61.4 49.2,44.2 49.2,53.2 71.0,65.8 71.0,98.2 49.2,85.7 49.2,94.7 78.8,111.8" fill="url(#eg)" stroke="#3d4654" stroke-width="1.5" stroke-linejoin="round"/></svg>