<svg xmlns="http://www.w3.org/2000/svg" viewBox="0 0 128 128" width="128" height="128" role="img" aria-label="Fixed-fixed beam"><title>Fixed-fixed beam</title><defs><linearGradient id="bt3" x1="0" y1="0" x2="0" y2="1"><stop offset="0" stop-color="#e8edf2"/><stop offset="1" stop-color="#9aa7b4"/></linearGradient><linearGradient id="bt3b" x1="0" y1="0" x2="0" y2="1"><stop offset="0" stop-color="#9aa7b4"/><stop offset="1" stop-color="#5b6675"/></linearGradient></defs><ellipse cx="64" cy="100" rx="46" ry="9" fill="#00000020"/><polygon points="24.2,73.0 83.1,39.0 93.4,45.0 34.6,79.0" fill="url(#bt3)" stroke="#3d4654" stroke-width="2" stroke-linejoin="round"/><polygon points="93.4,45.0 83.1,39.0 83.1,49.0 93.4,55.0" fill="#5b6675" stroke="#3d4654" stroke-width="2" stroke-linejoin="round"/><polygon points="34.6,79.0 93.4,45.0 93.4,55.0 34.6,89.0" fill="#9aa7b4" stroke="#3d4654" stroke-width="2" stroke-linejoin="round"/><polygon points="17.2,51.0 24.2,47.0 38.0,55.0 31.1,59.0" fill="url(#bt3b)" stroke="#3d4654" stroke-width="2" stroke-linejoin="round"/><polygon points="38.0,55.0 24.2,47.0 24.2,87.0 38.0,95.0" fill="#5b6675" stroke="#3d4654" stroke-width="2" stroke-linejoin="round"/><polygon points="31.1,59.0 38.0,55.0 38.0,95.0 31.1,99.0" fill="#9aa7b4" stroke="#3d4654" stroke-width="2" stroke-linejoin="round"/></svg>