<svg xmlns="http://www.w3.org/2000/svg" viewBox="0 0 128 128" width="128" height="128" role="img" aria-label="H-section (universal column)"><title>H-section (universal column)</title><defs><linearGradient id="eg" x1="0" y1="0" x2="0" y2="1"><stop offset="0" stop-color="#e8edf2"/><stop offset="1" stop-color="#9aa7b4"/></linearGradient><linearGradient id="eg2" x1="0" y1="0" x2="0" y2="1"><stop offset="0" stop-color="#9aa7b4"/><stop offset="1" stop-color="#5b6675"/></linearGradient><linearGradient id="eg3" x1="0" y1="0" x2="0" y2="1"><stop offset="0" stop-color="#5b6675"/><stop offset="1" stop-color="#3d4654"/></linearGradient></defs><ellipse cx="74" cy="104" rx="40" ry="9" fill="#00000020"/><polygon points="79.6,61.8 48.4,43.8 88.2,20.8 119.4,38.8" fill="url(#eg2)" stroke="#3d4654" stroke-width="1.2" stroke-linejoin="round"/><polygon points="48.4,43.8 48.4,53.7 88.2,30.7 88.2,20.8" fill="url(#eg2)" stroke="#3d4654" stroke-width="1.2" stroke-linejoin="round"/><polygon points="48.4,53.7 59.3,60.0 99.2,37.0 88.2,30.7" fill="url(#eg2)" stroke="#3d4654" stroke-width="1.2" stroke-linejoin="round"/><polygon points="59.3,60.0 59.3,90.6 99.2,67.6 99.2,37.0" fill="url(#eg2)" stroke="#3d4654" stroke-width="1.2" stroke-linejoin="round"/><polygon points="59.3,90.6 48.4,84.3 88.2,61.3 99.2,67.6" fill="url(#eg2)" stroke="#3d4654" stroke-width="1.2" stroke-linejoin="round"/><polygon points="48.4,84.3 48.4,94.2 88.2,71.2 88.2,61.3" fill="url(#eg2)" stroke="#3d4654" stroke-width="1.2" stroke-linejoin="round"/><polygon points="48.4,94.2 79.6,112.2 119.4,89.2 88.2,71.2" fill="url(#eg2)" stroke="#3d4654" stroke-width="1.2" stroke-linejoin="round"/><polygon points="79.6,112.2 79.6,102.3 119.4,79.3 119.4,89.2" fill="url(#eg2)" stroke="#3d4654" stroke-width="1.2" stroke-linejoin="round"/><polygon points="79.6,102.3 68.7,96.0 108.5,73.0 119.4,79.3" fill="url(#eg2)" stroke="#3d4654" stroke-width="1.2" stroke-linejoin="round"/><polygon points="68.7,96.0 68.7,65.4 108.5,42.4 108.5,73.0" fill="url(#eg2)" stroke="#3d4654" stroke-width="1.2" stroke-linejoin="round"/><polygon points="68.7,65.4 79.6,71.7 119.4,48.7 108.5,42.4" fill="url(#eg2)" stroke="#3d4654" stroke-width="1.2" stroke-linejoin="round"/><polygon points="79.6,71.7 79.6,61.8 119.4,38.8 119.4,48.7" fill="url(#eg2)" stroke="#3d4654" stroke-width="1.2" stroke-linejoin="round"/><polygon points="119.4,38.8 88.2,20.8 88.2,30.7 99.2,37.0 99.2,67.6 88.2,61.3 88.2,71.2 119.4,89.2 119.4,79.3 108.5,73.0 108.5,42.4 119.4,48.7" fill="url(#eg3)" stroke="#3d4654" stroke-width="1.2" stroke-linejoin="round"/><polygon points="79.6,61.8 48.4,43.8 48.4,53.7 59.3,60.0 59.3,90.6 48.4,84.3 48.4,94.2 79.6,112.2 79.6,102.3 68.7,96.0 68.7,65.4 79.6,71.7" fill="url(#eg)" stroke="#3d4654" stroke-width="1.5" stroke-linejoin="round"/></svg>