<svg xmlns="http://www.w3.org/2000/svg" viewBox="0 0 128 128" width="128" height="128" role="img" aria-label="I-section (universal beam)"><title>I-section (universal beam)</title><defs><linearGradient id="eg" x1="0" y1="0" x2="0" y2="1"><stop offset="0" stop-color="#e8edf2"/><stop offset="1" stop-color="#9aa7b4"/></linearGradient><linearGradient id="eg2" x1="0" y1="0" x2="0" y2="1"><stop offset="0" stop-color="#9aa7b4"/><stop offset="1" stop-color="#5b6675"/></linearGradient><linearGradient id="eg3" x1="0" y1="0" x2="0" y2="1"><stop offset="0" stop-color="#5b6675"/><stop offset="1" stop-color="#3d4654"/></linearGradient></defs><ellipse cx="74" cy="104" rx="40" ry="9" fill="#00000020"/><polygon points="81.1,62.7 46.9,42.9 86.7,19.9 121.0,39.7" fill="url(#eg2)" stroke="#3d4654" stroke-width="1.2" stroke-linejoin="round"/><polygon points="46.9,42.9 46.9,51.9 86.7,28.9 86.7,19.9" fill="url(#eg2)" stroke="#3d4654" stroke-width="1.2" stroke-linejoin="round"/><polygon points="46.9,51.9 60.1,59.5 99.9,36.6 86.7,28.9" fill="url(#eg2)" stroke="#3d4654" stroke-width="1.2" stroke-linejoin="round"/><polygon points="60.1,59.5 60.1,92.0 99.9,69.0 99.9,36.6" fill="url(#eg2)" stroke="#3d4654" stroke-width="1.2" stroke-linejoin="round"/><polygon points="60.1,92.0 46.9,84.3 86.7,61.3 99.9,69.0" fill="url(#eg2)" stroke="#3d4654" stroke-width="1.2" stroke-linejoin="round"/><polygon points="46.9,84.3 46.9,93.3 86.7,70.3 86.7,61.3" fill="url(#eg2)" stroke="#3d4654" stroke-width="1.2" stroke-linejoin="round"/><polygon points="46.9,93.3 81.1,113.1 121.0,90.1 86.7,70.3" fill="url(#eg2)" stroke="#3d4654" stroke-width="1.2" stroke-linejoin="round"/><polygon points="81.1,113.1 81.1,104.1 121.0,81.1 121.0,90.1" fill="url(#eg2)" stroke="#3d4654" stroke-width="1.2" stroke-linejoin="round"/><polygon points="81.1,104.1 67.9,96.5 107.7,73.5 121.0,81.1" fill="url(#eg2)" stroke="#3d4654" stroke-width="1.2" stroke-linejoin="round"/><polygon points="67.9,96.5 67.9,64.0 107.7,41.1 107.7,73.5" fill="url(#eg2)" stroke="#3d4654" stroke-width="1.2" stroke-linejoin="round"/><polygon points="67.9,64.0 81.1,71.7 121.0,48.7 107.7,41.1" fill="url(#eg2)" stroke="#3d4654" stroke-width="1.2" stroke-linejoin="round"/><polygon points="81.1,71.7 81.1,62.7 121.0,39.7 121.0,48.7" fill="url(#eg2)" stroke="#3d4654" stroke-width="1.2" stroke-linejoin="round"/><polygon points="121.0,39.7 86.7,19.9 86.7,28.9 99.9,36.6 99.9,69.0 86.7,61.3 86.7,70.3 121.0,90.1 121.0,81.1 107.7,73.5 107.7,41.1 121.0,48.7" fill="url(#eg3)" stroke="#3d4654" stroke-width="1.2" stroke-linejoin="round"/><polygon points="81.1,62.7 46.9,42.9 46.9,51.9 60.1,59.5 60.1,92.0 46.9,84.3 46.9,93.3 81.1,113.1 81.1,104.1 67.9,96.5 67.9,64.0 81.1,71.7" fill="url(#eg)" stroke="#3d4654" stroke-width="1.5" stroke-linejoin="round"/></svg>