<svg xmlns="http://www.w3.org/2000/svg" viewBox="0 0 128 128" width="128" height="128" role="img" aria-label="Solid rectangular bar"><title>Solid rectangular bar</title><defs><linearGradient id="eg" x1="0" y1="0" x2="0" y2="1"><stop offset="0" stop-color="#e8edf2"/><stop offset="1" stop-color="#9aa7b4"/></linearGradient><linearGradient id="eg2" x1="0" y1="0" x2="0" y2="1"><stop offset="0" stop-color="#9aa7b4"/><stop offset="1" stop-color="#5b6675"/></linearGradient><linearGradient id="eg3" x1="0" y1="0" x2="0" y2="1"><stop offset="0" stop-color="#5b6675"/><stop offset="1" stop-color="#3d4654"/></linearGradient></defs><ellipse cx="74" cy="104" rx="40" ry="9" fill="#00000020"/><polygon points="80.4,62.2 47.6,43.4 87.5,20.4 120.2,39.2" fill="url(#eg2)" stroke="#3d4654" stroke-width="1.2" stroke-linejoin="round"/><polygon points="47.6,43.4 47.6,93.8 87.5,70.8 87.5,20.4" fill="url(#eg2)" stroke="#3d4654" stroke-width="1.2" stroke-linejoin="round"/><polygon points="47.6,93.8 80.4,112.7 120.2,89.7 87.5,70.8" fill="url(#eg2)" stroke="#3d4654" stroke-width="1.2" stroke-linejoin="round"/><polygon points="80.4,112.7 80.4,62.2 120.2,39.2 120.2,89.7" fill="url(#eg2)" stroke="#3d4654" stroke-width="1.2" stroke-linejoin="round"/><polygon points="120.2,39.2 87.5,20.4 87.5,70.8 120.2,89.7" fill="url(#eg3)" stroke="#3d4654" stroke-width="1.2" stroke-linejoin="round"/><polygon points="80.4,62.2 47.6,43.4 47.6,93.8 80.4,112.7" fill="url(#eg)" stroke="#3d4654" stroke-width="1.5" stroke-linejoin="round"/></svg>