<svg xmlns="http://www.w3.org/2000/svg" viewBox="0 0 128 128" width="128" height="128" role="img" aria-label="Tee (T)"><title>Tee (T)</title><defs><linearGradient id="eg" x1="0" y1="0" x2="0" y2="1"><stop offset="0" stop-color="#e8edf2"/><stop offset="1" stop-color="#9aa7b4"/></linearGradient><linearGradient id="eg2" x1="0" y1="0" x2="0" y2="1"><stop offset="0" stop-color="#9aa7b4"/><stop offset="1" stop-color="#5b6675"/></linearGradient><linearGradient id="eg3" x1="0" y1="0" x2="0" y2="1"><stop offset="0" stop-color="#5b6675"/><stop offset="1" stop-color="#3d4654"/></linearGradient></defs><ellipse cx="74" cy="104" rx="40" ry="9" fill="#00000020"/><polygon points="83.5,65.8 44.5,43.4 84.4,20.4 123.3,42.9" fill="url(#eg2)" stroke="#3d4654" stroke-width="1.2" stroke-linejoin="round"/><polygon points="44.5,43.4 44.5,53.2 84.4,30.3 84.4,20.4" fill="url(#eg2)" stroke="#3d4654" stroke-width="1.2" stroke-linejoin="round"/><polygon points="44.5,53.2 59.7,62.0 99.6,39.0 84.4,30.3" fill="url(#eg2)" stroke="#3d4654" stroke-width="1.2" stroke-linejoin="round"/><polygon points="59.7,62.0 59.7,98.9 99.6,75.9 99.6,39.0" fill="url(#eg2)" stroke="#3d4654" stroke-width="1.2" stroke-linejoin="round"/><polygon points="59.7,98.9 68.3,103.9 108.1,80.9 99.6,75.9" fill="url(#eg2)" stroke="#3d4654" stroke-width="1.2" stroke-linejoin="round"/><polygon points="68.3,103.9 68.3,67.0 108.1,44.0 108.1,80.9" fill="url(#eg2)" stroke="#3d4654" stroke-width="1.2" stroke-linejoin="round"/><polygon points="68.3,67.0 83.5,75.8 123.3,52.8 108.1,44.0" fill="url(#eg2)" stroke="#3d4654" stroke-width="1.2" stroke-linejoin="round"/><polygon points="83.5,75.8 83.5,65.8 123.3,42.9 123.3,52.8" fill="url(#eg2)" stroke="#3d4654" stroke-width="1.2" stroke-linejoin="round"/><polygon points="123.3,42.9 84.4,20.4 84.4,30.3 99.6,39.0 99.6,75.9 108.1,80.9 108.1,44.0 123.3,52.8" fill="url(#eg3)" stroke="#3d4654" stroke-width="1.2" stroke-linejoin="round"/><polygon points="83.5,65.8 44.5,43.4 44.5,53.2 59.7,62.0 59.7,98.9 68.3,103.9 68.3,67.0 83.5,75.8" fill="url(#eg)" stroke="#3d4654" stroke-width="1.5" stroke-linejoin="round"/></svg>