<svg xmlns="http://www.w3.org/2000/svg" viewBox="0 0 128 128" width="128" height="128" role="img" aria-label="Truss member"><title>Truss member</title><defs><linearGradient id="bt3" x1="0" y1="0" x2="0" y2="1"><stop offset="0" stop-color="#e8edf2"/><stop offset="1" stop-color="#9aa7b4"/></linearGradient><linearGradient id="bt3b" x1="0" y1="0" x2="0" y2="1"><stop offset="0" stop-color="#9aa7b4"/><stop offset="1" stop-color="#5b6675"/></linearGradient></defs><ellipse cx="64" cy="100" rx="46" ry="9" fill="#00000020"/><polygon points="32.0,82.5 83.9,52.5 90.0,56.0 38.0,86.0" fill="url(#bt3)" stroke="#3d4654" stroke-width="2" stroke-linejoin="round"/><polygon points="90.0,56.0 83.9,52.5 83.9,59.5 90.0,63.0" fill="#5b6675" stroke="#3d4654" stroke-width="2" stroke-linejoin="round"/><polygon points="38.0,86.0 90.0,56.0 90.0,63.0 38.0,93.0" fill="#9aa7b4" stroke="#3d4654" stroke-width="2" stroke-linejoin="round"/><polygon points="32.0,49.5 38.0,46.0 44.1,49.5 38.0,53.0" fill="url(#bt3)" stroke="#3d4654" stroke-width="2" stroke-linejoin="round"/><polygon points="44.1,49.5 38.0,46.0 38.0,86.0 44.1,89.5" fill="#5b6675" stroke="#3d4654" stroke-width="2" stroke-linejoin="round"/><polygon points="38.0,53.0 44.1,49.5 44.1,89.5 38.0,93.0" fill="#9aa7b4" stroke="#3d4654" stroke-width="2" stroke-linejoin="round"/></svg>