<svg xmlns="http://www.w3.org/2000/svg" viewBox="0 0 128 128" width="128" height="128" role="img" aria-label="Triangular / varying distributed load"><title>Triangular / varying distributed load</title><line x1="20.0" y1="76.0" x2="108.0" y2="76.0" stroke="#1f2a37" stroke-width="5" stroke-linecap="round"/><polygon points="24.0,70.0 104.0,30.0 104.0,70.0" fill="none" stroke="#c0392b" stroke-width="2" stroke-linejoin="round"/><line x1="30.0" y1="67.0" x2="30.0" y2="70.0" stroke="#c0392b" stroke-width="2.5" stroke-linecap="round"/><polygon points="30.0,70.0 27.6,64.5 32.4,64.5" fill="#c0392b" stroke="none" stroke-width="2" stroke-linejoin="round"/><line x1="42.0" y1="61.0" x2="42.0" y2="70.0" stroke="#c0392b" stroke-width="2.5" stroke-linecap="round"/><polygon points="42.0,70.0 39.6,64.5 44.4,64.5" fill="#c0392b" stroke="none" stroke-width="2" stroke-linejoin="round"/><line x1="54.0" y1="55.0" x2="54.0" y2="70.0" stroke="#c0392b" stroke-width="2.5" stroke-linecap="round"/><polygon points="54.0,70.0 51.6,64.5 56.4,64.5" fill="#c0392b" stroke="none" stroke-width="2" stroke-linejoin="round"/><line x1="66.0" y1="49.0" x2="66.0" y2="70.0" stroke="#c0392b" stroke-width="2.5" stroke-linecap="round"/><polygon points="66.0,70.0 63.6,64.5 68.4,64.5" fill="#c0392b" stroke="none" stroke-width="2" stroke-linejoin="round"/><line x1="78.0" y1="43.0" x2="78.0" y2="70.0" stroke="#c0392b" stroke-width="2.5" stroke-linecap="round"/><polygon points="78.0,70.0 75.6,64.5 80.4,64.5" fill="#c0392b" stroke="none" stroke-width="2" stroke-linejoin="round"/><line x1="90.0" y1="37.0" x2="90.0" y2="70.0" stroke="#c0392b" stroke-width="2.5" stroke-linecap="round"/><polygon points="90.0,70.0 87.6,64.5 92.4,64.5" fill="#c0392b" stroke="none" stroke-width="2" stroke-linejoin="round"/><line x1="102.0" y1="31.0" x2="102.0" y2="70.0" stroke="#c0392b" stroke-width="2.5" stroke-linecap="round"/><polygon points="102.0,70.0 99.6,64.5 104.4,64.5" fill="#c0392b" stroke="none" stroke-width="2" stroke-linejoin="round"/></svg>