<svg xmlns="http://www.w3.org/2000/svg" viewBox="0 0 128 128" width="128" height="128" role="img" aria-label="Uniformly distributed load (UDL)"><title>Uniformly distributed load (UDL)</title><line x1="20.0" y1="76.0" x2="108.0" y2="76.0" stroke="#1f2a37" stroke-width="5" stroke-linecap="round"/><rect x="24.0" y="26.0" width="80.0" height="8.0" rx="0" fill="none" stroke="#c0392b" stroke-width="2"/><line x1="28.0" y1="34.0" x2="28.0" y2="70.0" stroke="#c0392b" stroke-width="3" stroke-linecap="round"/><polygon points="28.0,70.0 25.1,63.6 30.9,63.6" fill="#c0392b" stroke="none" stroke-width="2" stroke-linejoin="round"/><line x1="40.0" y1="34.0" x2="40.0" y2="70.0" stroke="#c0392b" stroke-width="3" stroke-linecap="round"/><polygon points="40.0,70.0 37.1,63.6 42.9,63.6" fill="#c0392b" stroke="none" stroke-width="2" stroke-linejoin="round"/><line x1="52.0" y1="34.0" x2="52.0" y2="70.0" stroke="#c0392b" stroke-width="3" stroke-linecap="round"/><polygon points="52.0,70.0 49.1,63.6 54.9,63.6" fill="#c0392b" stroke="none" stroke-width="2" stroke-linejoin="round"/><line x1="64.0" y1="34.0" x2="64.0" y2="70.0" stroke="#c0392b" stroke-width="3" stroke-linecap="round"/><polygon points="64.0,70.0 61.1,63.6 66.9,63.6" fill="#c0392b" stroke="none" stroke-width="2" stroke-linejoin="round"/><line x1="76.0" y1="34.0" x2="76.0" y2="70.0" stroke="#c0392b" stroke-width="3" stroke-linecap="round"/><polygon points="76.0,70.0 73.1,63.6 78.9,63.6" fill="#c0392b" stroke="none" stroke-width="2" stroke-linejoin="round"/><line x1="88.0" y1="34.0" x2="88.0" y2="70.0" stroke="#c0392b" stroke-width="3" stroke-linecap="round"/><polygon points="88.0,70.0 85.1,63.6 90.9,63.6" fill="#c0392b" stroke="none" stroke-width="2" stroke-linejoin="round"/><line x1="100.0" y1="34.0" x2="100.0" y2="70.0" stroke="#c0392b" stroke-width="3" stroke-linecap="round"/><polygon points="100.0,70.0 97.1,63.6 102.9,63.6" fill="#c0392b" stroke="none" stroke-width="2" stroke-linejoin="round"/><text x="64" y="20" font-family="Segoe UI,Arial,sans-serif" font-size="12" font-weight="600" fill="#c0392b" text-anchor="middle">w</text></svg>